<svg xmlns="http://www.w3.org/2000/svg" width="1922.334" height="75.208" viewBox="0 0 1922.334 75.208">
  <g id="Group_32" data-name="Group 32" transform="translate(0.003 -24.292)">
    <path id="Path_155" data-name="Path 155" d="M0,99s362.623-2.345,518.676-57.37c80.679-28.447,148.859-16.255,252.291,2.328C811.555,51.25,857.6,59.531,912.062,66.724c74.726,9.869,165.313,17.672,279.2,17.971,407.244,1.067,613.88,34,730.791-43.064" fill="none" stroke="#5706f0" stroke-width="1"/>
    <path id="Path_156" data-name="Path 156" d="M0,92s358.683-2.124,513.04-51.961c79.8-25.765,147.242-14.723,249.549,2.108,40.146,6.6,85.689,14.1,139.561,20.62,73.914,8.939,163.517,16.006,276.169,16.277,402.818.967,607.208,30.8,722.849-39" transform="translate(6 7)" fill="none" stroke="#5706f0" stroke-width="1"/>
  </g>
</svg>
