<svg xmlns="http://www.w3.org/2000/svg" xmlns:xlink="http://www.w3.org/1999/xlink" width="884.281" height="751.815" viewBox="0 0 884.281 751.815">
  <defs>
    <clipPath id="clip-path">
      <rect id="Rectangle_19" data-name="Rectangle 19" width="884.281" height="751.815" transform="translate(515 113)" fill="#fff"/>
    </clipPath>
    <linearGradient id="linear-gradient" x1="31.936" y1="1" x2="31.936" gradientUnits="objectBoundingBox">
      <stop offset="0" stop-color="gray" stop-opacity="0.251"/>
      <stop offset="0.54" stop-color="gray" stop-opacity="0.122"/>
      <stop offset="1" stop-color="gray" stop-opacity="0.102"/>
    </linearGradient>
  </defs>
  <g id="Mask_Group_5" data-name="Mask Group 5" transform="translate(-515 -113)" clip-path="url(#clip-path)">
    <g id="Group_2" data-name="Group 2" transform="translate(564.309 133.768)">
      <g id="undraw_product_tour_foyt" transform="translate(0 79)">
        <path id="Path_6" data-name="Path 6" d="M558.359,153.652c-33.736,23.619-77.494,22.094-115.84,9.8s-73.57-34.173-110.931-49.725a360.487,360.487,0,0,0-97.465-25.406c-47.617-5.449-100.792,1.189-133.966,39.389C63.212,170.232,66.049,246.938,105.993,286c20.329,19.855,46.946,29.6,70.156,45.1s44.714,41.227,42.737,71.133c-1.831,27.718-23.108,48.959-45.129,62.3-17.017,10.307-37.974,21.562-40.023,42.912-1.984,20.657,15.639,36.843,32.467,46.048a184.41,184.41,0,0,0,177.25-.729c19.5-10.9,37.419-25.377,57.88-33.823,53.722-22.262,112.922.153,169.81,8.345a339.459,339.459,0,0,0,144.426-10.511c28.17-8.323,56.45-21.044,76.239-44.743,14.275-17.09,23.166-38.71,31.511-60.075q13.348-34.159,25.668-68.806c4.924-13.859,9.774-28,11.051-42.832,2.3-26.879-7.411-53.452-20.643-76.137-31.416-53.9-84.328-91.776-141.632-101.4s-117.926,9.169-162.37,50.286" transform="translate(-74.15 -86.66)" fill="#242424"/>
        <g id="Group_15" data-name="Group 15" transform="translate(391.579 74.528)" opacity="0.1">
          <path id="Path_7" data-name="Path 7" d="M728.791,211.623l-2.779,161.2s100.6,0,186.2,27.791l1.663-162.851S776.59,204.948,728.791,211.623Z" transform="translate(-726.012 -210.727)"/>
        </g>
        <path id="Path_8" data-name="Path 8" d="M725.148,206.765l-2.779,161.2s100.6,0,186.2,27.791l1.663-162.851S772.947,200.091,725.148,206.765Z" transform="translate(-332.978 -134.26)" fill="#292929"/>
        <g id="Group_16" data-name="Group 16" transform="translate(158.769 79.154)" opacity="0.1">
          <path id="Path_9" data-name="Path 9" d="M523.537,219.314l2.779,161.2s-100.6,0-186.193,27.791l-1.67-162.851S475.738,212.677,523.537,219.314Z" transform="translate(-338.453 -218.427)"/>
        </g>
        <path id="Path_10" data-name="Path 10" d="M527.18,213.243l2.779,161.2s-100.6,0-186.193,27.791L342.1,239.386S479.381,206.605,527.18,213.243Z" transform="translate(-181.138 -136.849)" fill="#292929"/>
        <g id="Group_17" data-name="Group 17" transform="translate(201.594 94.722)" opacity="0.2">
          <path id="Path_11" data-name="Path 11" d="M509,244.82l1.5,86.444s-53.977,0-99.858,14.9l-.9-87.334S483.371,241.261,509,244.82Z" transform="translate(-409.743 -244.344)"/>
        </g>
        <g id="Group_18" data-name="Group 18" transform="translate(638.737 134.718)" opacity="0.1">
          <path id="Path_12" data-name="Path 12" d="M1137.455,310.926V470.443s32.824-3.9,101.718,81.148l6.113-159.518S1173.583,314.814,1137.455,310.926Z" transform="translate(-1137.455 -310.926)"/>
        </g>
        <path id="Path_13" data-name="Path 13" d="M1135.026,307.283V466.8s32.824-3.9,101.718,81.148l6.113-159.518S1171.155,311.171,1135.026,307.283Z" transform="translate(-497.748 -174.753)" fill="#292929"/>
        <g id="Group_19" data-name="Group 19" transform="translate(0.368 135.448)" opacity="0.1">
          <path id="Path_14" data-name="Path 14" d="M182.586,312.14V471.658s-32.795-3.9-101.674,81.148L74.763,393.288S146.458,316.028,182.586,312.14Z" transform="translate(-74.763 -312.14)"/>
        </g>
        <path id="Path_15" data-name="Path 15" d="M186.229,307.283V466.8s-32.795-3.9-101.674,81.148L78.405,388.431S150.1,311.171,186.229,307.283Z" transform="translate(-75.849 -174.753)" fill="#292929"/>
        <g id="Group_20" data-name="Group 20" transform="translate(419.049 106.038)" opacity="0.2">
          <path id="Path_16" data-name="Path 16" d="M697.6,176.518l68.15,12.189v9.927L697.6,185.549Z" transform="translate(-697.598 -176.518)"/>
        </g>
        <path id="Path_17" data-name="Path 17" d="M433.735,336.195l-68.143,12.189v9.927l68.143-13.086Z" transform="translate(-145.982 -134.238)" fill="#202020"/>
        <path id="Path_18" data-name="Path 18" d="M699.1,207.324,823.66,233.051v9.927L699.1,216.355Z" transform="translate(-279.15 -82.781)" fill="#525252"/>
        <path id="Path_19" data-name="Path 19" d="M699.1,238.13,823.66,263.85v9.935L699.1,247.153Z" transform="translate(-279.15 -95.082)" fill="#525252"/>
        <g id="Group_21" data-name="Group 21" transform="translate(666.324 184.042)" opacity="0.2">
          <path id="Path_20" data-name="Path 20" d="M1109.235,306.372v8.76l26.719,21.708,1.255-7.513Z" transform="translate(-1109.235 -306.372)"/>
        </g>
        <path id="Path_21" data-name="Path 21" d="M1109.235,447.228v8.76l26.719,21.708,1.255-7.513Z" transform="translate(-442.911 -178.573)" fill="#5614d3"/>
        <path id="Path_22" data-name="Path 22" d="M1109.658,331.386l-.423,8.768,50.512,47.58-.831-10.015Z" transform="translate(-442.911 -132.318)" fill="#525252"/>
        <path id="Path_23" data-name="Path 23" d="M1109.235,358.489v8.345l50.512,48.426V404.406Z" transform="translate(-442.911 -143.14)" fill="#202020"/>
        <g id="Group_22" data-name="Group 22" transform="translate(30.821 185.939)" opacity="0.2">
          <path id="Path_24" data-name="Path 24" d="M101.4,309.529l.416,8.768-50.505,47.58.832-10.015Z" transform="translate(-51.315 -309.529)"/>
        </g>
        <g id="Group_23" data-name="Group 23" transform="translate(30.821 202.219)" opacity="0.2">
          <path id="Path_25" data-name="Path 25" d="M101.82,336.632v8.345L51.315,393.4V382.549Z" transform="translate(-51.315 -336.632)" fill="#525252"/>
        </g>
        <ellipse id="Ellipse_1" data-name="Ellipse 1" cx="41.577" cy="7.484" rx="41.577" ry="7.484" transform="translate(107.666 446.131)" opacity="0.1"/>
        <path id="Path_26" data-name="Path 26" d="M151.113,773.3s4,5.237-1.853,13.13-10.686,14.588-8.753,19.519c0,0,8.833-14.691,16.047-14.895S159.027,782.165,151.113,773.3Z" transform="translate(-100.473 -360.827)"/>
        <path id="Path_27" data-name="Path 27" d="M151.274,773.3a6.292,6.292,0,0,1,.817,1.641c7.017,8.242,10.759,15.938,4.012,16.135-6.28.175-13.859,11.415-15.624,14.253.058.212.131.43.212.642,0,0,8.833-14.69,16.047-14.895S159.189,782.165,151.274,773.3Z" transform="translate(-100.635 -360.827)" opacity="0.1"/>
        <path id="Path_28" data-name="Path 28" d="M170.232,783.631c0,1.845-.2,3.341-.46,3.341s-.467-1.5-.467-3.341.263-.977.518-.977S170.232,781.778,170.232,783.631Z" transform="translate(-112.145 -364.481)" fill="#fff"/>
        <path id="Path_29" data-name="Path 29" d="M173,787.223c-1.619.883-3.034,1.415-3.158,1.2s1.094-1.123,2.713-2.006.977-.241,1.1,0S174.624,786.347,173,787.223Z" transform="translate(-112.357 -365.885)" fill="#fff"/>
        <path id="Path_30" data-name="Path 30" d="M117.227,773.3s-3.99,5.223,1.845,13.151,10.686,14.589,8.753,19.519c0,0-8.833-14.69-16.047-14.895S109.321,782.165,117.227,773.3Z" transform="translate(-87.756 -360.827)"/>
        <path id="Path_31" data-name="Path 31" d="M117.22,773.3a6.565,6.565,0,0,0-.817,1.641c-7.017,8.242-10.759,15.938-4.012,16.135,6.288.175,13.859,11.415,15.624,14.253a5.492,5.492,0,0,1-.212.642s-8.833-14.69-16.047-14.895S109.313,782.165,117.22,773.3Z" transform="translate(-87.749 -360.827)" opacity="0.1"/>
        <path id="Path_32" data-name="Path 32" d="M110.814,783.631c0,1.845.2,3.341.46,3.341s.467-1.5.467-3.341-.263-.977-.518-.977S110.814,781.778,110.814,783.631Z" transform="translate(-88.79 -364.481)" fill="#fff"/>
        <path id="Path_33" data-name="Path 33" d="M105.908,787.223c1.619.883,3.027,1.415,3.151,1.2s-1.094-1.123-2.713-2.006-.977-.241-1.1,0S104.289,786.347,105.908,787.223Z" transform="translate(-86.437 -365.885)" fill="#fff"/>
        <path id="Path_34" data-name="Path 34" d="M112.927,822.518s11.2-.343,14.588-2.75,17.229-5.274,18.068-1.415,16.835,19.176,4.187,19.279-29.388-1.969-32.758-4.026S112.927,822.518,112.927,822.518Z" transform="translate(-89.633 -378.064)" fill="#a8a8a8"/>
        <path id="Path_35" data-name="Path 35" d="M150,840.3c-12.648.1-29.388-1.97-32.758-4.026-2.568-1.561-3.589-7.17-3.932-9.76h-.372s.729,9.038,4.077,11.087,20.11,4.129,32.758,4.026c3.647,0,4.916-1.328,4.843-3.253C154.115,839.552,152.722,840.281,150,840.3Z" transform="translate(-89.638 -382.078)" opacity="0.2"/>
        <ellipse id="Ellipse_2" data-name="Ellipse 2" cx="68.566" cy="11.744" rx="68.566" ry="11.744" transform="translate(369.449 331.604)" opacity="0.1"/>
        <path id="Path_36" data-name="Path 36" d="M770.152,392.972a9.549,9.549,0,0,0-.729,2.239q-.066.292-.131.613c-.438,2.232-.729,5.04-.883,6.674-.073.817-.109,1.342-.109,1.342s-15.821-1.058-13.079-3.713a5.833,5.833,0,0,0,1.459-2.626c.08-.284.146-.569.2-.861a14.8,14.8,0,0,0,.255-2.006v-.511a20.69,20.69,0,0,0-.153-3.275s5.143,0,9.023.416C768.621,391.564,770.656,392.082,770.152,392.972Z" transform="translate(-345.968 -208.12)" fill="#764d4b"/>
        <path id="Path_37" data-name="Path 37" d="M731.834,486.757c-5.39-.175-1.415-11.4-.8-12.911s-.919-5.208-.919-5.208-1.824-10.693-1.824-11.394a28.567,28.567,0,0,0-.613-4.333,7.294,7.294,0,0,1,.729-4.245c.62-.97.525-4.858.525-4.858v-5.033l1.2-1.59,3.071,2.918.853.8,1.5,5.631-.533,8.067-.284,7.856,1.86,10.868S737.26,486.94,731.834,486.757Z" transform="translate(-335.075 -226.622)" fill="#764d4b"/>
        <path id="Path_38" data-name="Path 38" d="M660.277,354.781l-4.6-1.911v-.744l1.2-1.59,3.078,2.9Z" transform="translate(-261.811 -139.964)" opacity="0.1"/>
        <path id="Path_39" data-name="Path 39" d="M732.3,425.128a21.2,21.2,0,0,0-1.277,4.508,19.984,19.984,0,0,1-1.2,4.326l5.106,2.123Z" transform="translate(-335.955 -221.807)" fill="#4c4981"/>
        <path id="Path_40" data-name="Path 40" d="M732.3,425.128a21.2,21.2,0,0,0-1.277,4.508,19.984,19.984,0,0,1-1.2,4.326l5.106,2.123Z" transform="translate(-335.955 -221.807)" opacity="0.05"/>
        <path id="Path_41" data-name="Path 41" d="M790.015,586.608l-.423.9s-.46,3-.46,3.071-1.327,2.071-1.327,2.071l-3.334.729-1.415-.175a19.934,19.934,0,0,0-.379-2.451c-.051-.226-.1-.459-.168-.693a18.731,18.731,0,0,0-2.327-5.281s-2.473-6.1-3.356-6.893-4.245-8.841-3.888-10.781a56.589,56.589,0,0,0-.139-7.615c-.146-2.429-.306-4.471-.306-4.471l8.4-4.96.977,1.539.584.912a4.176,4.176,0,0,1-.036.467v.109a15.559,15.559,0,0,1-.73,3.647s-.627,4.508,0,5.3,2.626,11.423,3.071,16.339v.445a9.865,9.865,0,0,0,2.983,5.748h0c.087.1.182.2.277.292A19.228,19.228,0,0,0,790.015,586.608Z" transform="translate(-352.992 -271.693)" fill="#764d4b"/>
        <path id="Path_42" data-name="Path 42" d="M789.723,616l1.415.175,3.334-.729s1.328-2.006,1.328-2.072.46-3.071.46-3.071l.423-.9.051-.109a17.718,17.718,0,0,1-2.29-1.889h0c-.08-.073-.161-.146-.233-.226s.474,2.918-2.064,4.223c-1.233.635-2.247,1.123-2.954,1.459Z" transform="translate(-359.659 -294.494)" opacity="0.1"/>
        <path id="Path_43" data-name="Path 43" d="M797.367,610.2l-.474,1.014s-.459,3-.459,3.071-1.328,2.071-1.328,2.071l-3.334.729-1.918-.226a12.692,12.692,0,0,0-.16-1.6c-.058-.4-.139-.846-.248-1.328.729-.328,1.86-.868,3.311-1.619a4.135,4.135,0,0,0,2.064-4.223,20.166,20.166,0,0,0,1.743,1.546C796.914,609.888,797.2,610.085,797.367,610.2Z" transform="translate(-359.761 -294.864)" fill="#ceddf9"/>
        <path id="Path_44" data-name="Path 44" d="M797.531,611.23l-.474,1.014s-.459,3-.459,3.071-1.328,2.072-1.328,2.072l-3.333.729-1.918-.226a12.688,12.688,0,0,0-.161-1.6,6.636,6.636,0,0,1,1.211.168s4.552.97,4.771-2.633c.131-2.042.554-2.845.89-3.158C797.079,610.916,797.364,611.113,797.531,611.23Z" transform="translate(-359.925 -295.892)" opacity="0.1"/>
        <path id="Path_45" data-name="Path 45" d="M796.5,609.519s-1.131-.248-1.357,3.348-4.771,2.633-4.771,2.633-2.232-.554-2.254.372a8.664,8.664,0,0,0,.6,2.495,7.768,7.768,0,0,0,.554,2.655c.423.511.153,2.407.153,2.407s.175,1.415,3.691,0c0,0,3.137-.649,5.741-4.552.087-.131-.306-.533,1.969-1.349s8.753-6.054,8.286-8.614a2.188,2.188,0,0,0-1.546-1.838,2.661,2.661,0,0,0-2.035.277,16.109,16.109,0,0,1-1.9.875,9.343,9.343,0,0,1-2.713.649,10.436,10.436,0,0,0-2.108.4,4.378,4.378,0,0,1-2.305.241Z" transform="translate(-359.232 -294.421)" fill="#cc8294"/>
        <path id="Path_46" data-name="Path 46" d="M743.506,567.634a6.187,6.187,0,0,0-1.284,1.459c-1.284,1.962-2.057,4.7-2.918,5.886a11.644,11.644,0,0,0-1.459,4.508c-.3,1.955-4.442,12.4-5.565,14.253a46.511,46.511,0,0,0-2.684,6.893,5.439,5.439,0,0,0-.8,3.822.767.767,0,0,0,.044.343.131.131,0,0,1,0,.139v.051l-1.532,2.6-4.873-.678-2.517-1.707a8.561,8.561,0,0,0,.547-1.043,46.1,46.1,0,0,0,2.3-8.374s1.357-6.127,1.255-7.557a57.27,57.27,0,0,1,.4-5.835s3.837-11.707,5.062-13.6a5.457,5.457,0,0,0,.919-2.517,2.12,2.12,0,0,0,0-.547l1.648-1.641S745.621,565.949,743.506,567.634Z" transform="translate(-331.998 -277.293)" fill="#764d4b"/>
        <path id="Path_47" data-name="Path 47" d="M728.922,631.023v.576l-1.532,2.6-4.872-.678L720,631.818a8.558,8.558,0,0,0,.547-1.043c1.225-.35,4.026.642,4.026.642s3.027.576,4.3-.35A.077.077,0,0,1,728.922,631.023Z" transform="translate(-332.032 -303.89)" opacity="0.1"/>
        <path id="Path_48" data-name="Path 48" d="M726.569,638.333l-4.945,1.182-4.537-3.355.233-1.889a3.263,3.263,0,0,0,.831-.729,2.99,2.99,0,0,0,.657-1.357c.263-1.393,4.574.131,4.574.131s3.151.6,4.376-.4a7.686,7.686,0,0,0,.233,2.728,2.035,2.035,0,0,0,.729,1.087C729.983,636.6,726.569,638.333,726.569,638.333Z" transform="translate(-330.869 -304.248)" fill="#ceddf9"/>
        <path id="Path_49" data-name="Path 49" d="M726.569,639.625l-4.945,1.182-4.537-3.355.233-1.889a3.262,3.262,0,0,0,.831-.729h.992c.729.073,2.553,3.319,2.553,3.319,4.479.3,5.835-1.167,6.295-2.247a2.035,2.035,0,0,0,.729,1.087C729.983,637.888,726.569,639.625,726.569,639.625Z" transform="translate(-330.869 -305.54)" opacity="0.1"/>
        <path id="Path_50" data-name="Path 50" d="M718.788,639.033s-1.794-3.246-2.553-3.312a17.2,17.2,0,0,0-1.926,0s-1.984,4.7-2.713,5.106-1.794,2.655-1.794,2.655,5.252,5.106,10.329,4.107a10.527,10.527,0,0,1,4.654,1.16c2.349,1.225,12.159.3,13.356-1.853.89-1.619,1.247-2.794.46-3.647a2.13,2.13,0,0,0-1.845-.627,6.946,6.946,0,0,1-6.434-2.845s-4.479-4.1-4.843-4.107S725.776,639.5,718.788,639.033Z" transform="translate(-327.96 -305.875)" fill="#cc8294"/>
        <path id="Path_51" data-name="Path 51" d="M782.458,553.047l-.036.044c-.306.336-2.465,2.706-3.122,2.874a31.2,31.2,0,0,0-3.18,1.408s-1.328,1.773-2.385,1.86a4.172,4.172,0,0,0-.934.248c-.146-2.429-.306-4.471-.306-4.471l8.4-4.945.977,1.539c.219.62.467,1.2.547,1.379Z" transform="translate(-352.992 -271.693)" opacity="0.1"/>
        <path id="Path_52" data-name="Path 52" d="M737.31,497.1s-3.268,4.26,0,9.913a33.019,33.019,0,0,0,6.718,8.483l11.131,23.064a18.193,18.193,0,0,1,3.983-1.678c1.065-.088,2.385-1.853,2.385-1.853a30.886,30.886,0,0,1,3.18-1.415c.729-.175,3.158-2.918,3.158-2.918s-1.218-2.648-.948-3.355-.8-2.48-.8-2.48a14.578,14.578,0,0,1-.729-2.735,7.181,7.181,0,0,0-1.153-2.385A7.553,7.553,0,0,1,763.1,517c0-.97-1.714-4.8-1.714-4.8l-.445-16.777Z" transform="translate(-338.364 -249.875)" fill="#ceddf9"/>
        <path id="Path_53" data-name="Path 53" d="M767.8,530.7s-2.451,2.735-3.158,2.918a30.877,30.877,0,0,0-3.18,1.415s-1.328,1.765-2.385,1.853a8.459,8.459,0,0,0-2.188.78c-.948.43-1.8.9-1.8.9L743.948,515.5a24.118,24.118,0,0,1-2.706-2.772,38.287,38.287,0,0,1-4.012-5.711,9.563,9.563,0,0,1-1.269-6.878,7.913,7.913,0,0,1,1.269-3.027l7.922-.562,15.777-1.123.131,4.967.292,11.809s.255.591.576,1.371a14.991,14.991,0,0,1,1.1,3.4,7.491,7.491,0,0,0,1.145,2.743,7.414,7.414,0,0,1,1.152,2.385,14.77,14.77,0,0,0,.729,2.743s1.065,1.765.8,2.465S767.8,530.7,767.8,530.7Z" transform="translate(-338.335 -249.875)" opacity="0.05"/>
        <path id="Path_54" data-name="Path 54" d="M750.458,567.6a6.187,6.187,0,0,0-1.284,1.459c-4.807.35-10.394-2.188-11.846-2.859a2.115,2.115,0,0,0,0-.547l1.648-1.641S752.574,565.92,750.458,567.6Z" transform="translate(-338.951 -277.264)" opacity="0.1"/>
        <path id="Path_55" data-name="Path 55" d="M764.406,501.229s-.729,2.473-.97,3.53-.8,6.28-.8,6.28l-.306,1.459-5.048,24.071-1.1,5.23c-1.94,1.065-6.8-1.772-6.8-1.772-5.66.627-12.641-3-12.641-3s1.145-3.713.883-5.566,1.59-3.363,1.59-3.363c-.438-1.678,1.145-9.016,1.145-9.016s.357-2.735,1.685-3.443-.175-1.765-.533-2.392a2.707,2.707,0,0,1,.124-1.619,12.007,12.007,0,0,1,.409-1.2c-3.37-3.37-3.888-8.636-3.9-11.561a18.677,18.677,0,0,1,.095-2.137l7.294-1.276,15.938-2.786,1.627,5h0l.409,1.255Z" transform="translate(-338.718 -248.774)" fill="#ceddf9"/>
        <path id="Path_56" data-name="Path 56" d="M771.538,392.967a9.564,9.564,0,0,0-.729,2.239q-.066.292-.131.613c-1.539,1-2.487,1.007-4.457,1.007-.678,0-1.058-1.3-1.7-1.459,0,0-.963-3.472-1.233-.547-1.853-.379-3.45,1.065-4.763-.2h0v-.511a20.674,20.674,0,0,0-.153-3.275s5.142,0,9.023.416C770.006,391.559,772.041,392.077,771.538,392.967Z" transform="translate(-347.353 -208.115)" opacity="0.1"/>
        <path id="Path_57" data-name="Path 57" d="M773.277,377.932a9.862,9.862,0,0,1-11.824,9.65h0A9.847,9.847,0,1,1,772.015,373.1,9.673,9.673,0,0,1,773.277,377.932Z" transform="translate(-345.445 -199.032)" fill="#764d4b"/>
        <path id="Path_58" data-name="Path 58" d="M768.409,406.92c-.073.817-.109,1.342-.109,1.342s-15.821-1.058-13.079-3.713a5.835,5.835,0,0,0,1.459-2.626l6.864,1.123s1.94,1.5,3.443,2.918a6.239,6.239,0,0,0,1.422.956Z" transform="translate(-345.968 -212.542)" opacity="0.1"/>
        <path id="Path_59" data-name="Path 59" d="M763.266,499.4a5.106,5.106,0,0,1-2.079-.153,4.217,4.217,0,0,1-.839-.372c-1.328-.8-5.74.182-5.74.182s-12.021.8-12.554,0c-.3-.46-2.422-.394-4.158-.255-.729.058-1.349.131-1.794.175a7.913,7.913,0,0,1,1.269-3.027l7.922-.562,15.938-2.786,1.627,5h0A17.988,17.988,0,0,0,763.266,499.4Z" transform="translate(-338.461 -248.75)" opacity="0.1"/>
        <path id="Path_60" data-name="Path 60" d="M754.307,403.739l-8.622-1.415a2.568,2.568,0,0,1-1.627,1.415c-1.145.263-6.273,2.918-8.571,6.1l-2.3,3.188s-1.86,2.3-1.24,4.15a70.057,70.057,0,0,1,1.328,8.133l.883,6.981s1.678,5.04,1.152,7.25.263,11.488.263,11.488l-1.765,11.488s6-.8,6.565,0,12.553,0,12.553,0,4.377-.977,5.741-.182a4.8,4.8,0,0,0,2.918.532s-1.058-3.647-.445-5.653a22.663,22.663,0,0,0,.445-5.748s.883-5.39.438-6.361S763,440.6,763,440.6l4.683-24.654s-.569-4.42-3.071-5.923-5.325-1.948-6.827-3.355S754.307,403.739,754.307,403.739Z" transform="translate(-336.753 -212.702)" fill="#4c4981"/>
        <path id="Path_61" data-name="Path 61" d="M775.918,443.811v2.918l2.721,7.338.985,6.806s1.773,4.858,1.773,6.565,4.325,9.811,4.325,9.811,1.182,2.743.591,3.268-5.711,12.2.729,11.846,4.42-12.546,4.42-12.546l-.883-5.3s-1.24-13.261-1.24-14.231c0,0-1.59-5.653-1.765-6.893s-1.328-7.513-1.328-7.513l-.97-4.063Z" transform="translate(-354.359 -228.469)" fill="#764d4b"/>
        <path id="Path_62" data-name="Path 62" d="M688.246,373.776l-9.607,5.5-2.983,4.508,3.975-4.041Z" transform="translate(-269.787 -149.244)" opacity="0.1"/>
        <path id="Path_63" data-name="Path 63" d="M757.1,477.973s-4.377,2.852-6.434,2.852-6.827,4.9-6.827,4.9,6.762-4.376,7.294-4.238S757.1,477.973,757.1,477.973Z" transform="translate(-341.55 -242.908)" opacity="0.1"/>
        <path id="Path_64" data-name="Path 64" d="M745.119,480.511s-4.107,3.713-3.049,4.114,6.565-4.114,6.565-4.114Z" transform="translate(-340.775 -243.921)" opacity="0.1"/>
        <path id="Path_65" data-name="Path 65" d="M775.857,458.447s-3.18,4.311-2.32,4.245,3.312-2.524,3.312-2.524Z" transform="translate(-353.35 -235.111)" opacity="0.1"/>
        <path id="Path_66" data-name="Path 66" d="M776.058,465.514s-3.443,3.91-3.312,4.9S776.058,465.514,776.058,465.514Z" transform="translate(-353.092 -237.933)" opacity="0.1"/>
        <path id="Path_67" data-name="Path 67" d="M778.66,468.769s-2.319,4.143-1.328,5S778.66,468.769,778.66,468.769Z" transform="translate(-354.826 -239.233)" opacity="0.1"/>
        <path id="Path_68" data-name="Path 68" d="M774.087,451.053s-1.729,2.918-.467,3.115,1.386,0,1.386,0Z" transform="translate(-353.258 -232.159)" opacity="0.1"/>
        <path id="Path_69" data-name="Path 69" d="M773.876,433.288a30.463,30.463,0,0,1-1.765,5.2,24.1,24.1,0,0,1-.686-2.6,17.759,17.759,0,0,1,2.451-2.6Z" transform="translate(-352.566 -225.065)" opacity="0.1"/>
        <path id="Path_70" data-name="Path 70" d="M772.019,373.1a4.284,4.284,0,0,1-.664,1.028,7.618,7.618,0,0,0-1.2,1.371,7.361,7.361,0,0,0-.43,2.341c-.131.788-.627,1.663-1.459,1.685a2.962,2.962,0,0,1-1.167-.35,1.189,1.189,0,0,0-1.16.036,1.3,1.3,0,0,0-.372.875,11.581,11.581,0,0,0-.117,2.072,5.2,5.2,0,0,0,.044.824,4.632,4.632,0,0,1-.153,2.626,3.18,3.18,0,0,1-1.634,1.313,10.1,10.1,0,0,1-2.29.642h0a25.182,25.182,0,0,1-4.515.146,1.116,1.116,0,0,1-.408-.066.577.577,0,0,1-.175-.109,13.8,13.8,0,0,0,.27-2.517A9.847,9.847,0,1,1,772.02,373.1Z" transform="translate(-345.45 -199.041)" opacity="0.1"/>
        <path id="Path_71" data-name="Path 71" d="M765.083,362.536a8.558,8.558,0,0,0-2.648.584c-1.831.4-3.705-.43-5.587-.423a10.371,10.371,0,0,0-4.6,1.371,11.093,11.093,0,0,0-3.064,2.144,5,5,0,0,0-1.459,3.37,5.521,5.521,0,0,1-.066,2.188,6.168,6.168,0,0,1-.671,1.021,3.034,3.034,0,0,0-.314,2.531,8.4,8.4,0,0,0,1.51,2.261c1.211,1.554,1.969,3.414,3.056,5.062a15.762,15.762,0,0,0,1.59,2.02,1.124,1.124,0,0,0,.343.27,1.052,1.052,0,0,0,.4.058,16.106,16.106,0,0,0,6.813-.788,3.115,3.115,0,0,0,1.634-1.313,4.632,4.632,0,0,0,.161-2.626,12.03,12.03,0,0,1,.066-2.918,1.284,1.284,0,0,1,.372-.868,1.167,1.167,0,0,1,1.167-.036,3.181,3.181,0,0,0,1.16.35c.795,0,1.3-.9,1.459-1.692a3.968,3.968,0,0,1,1.627-3.713,5.617,5.617,0,0,0,1-4.982C768.511,364.768,766.906,362.719,765.083,362.536Z" transform="translate(-342.627 -196.81)" fill="#06050b"/>
        <path id="Path_72" data-name="Path 72" d="M783.919,425.72a11.475,11.475,0,0,0,0,3.647c-.088.977,0,6.368,0,6.368-2.918-.89-10.336.883-10.336.883l-.883-2.648a6.566,6.566,0,0,1-1.109-2.188,24.264,24.264,0,0,1-.686-2.611,54.143,54.143,0,0,1-.868-5.551c-.372-2.808,3.808-5.835,6.973-7.513s5.938,5.478,5.938,5.478S784.269,424.334,783.919,425.72Z" transform="translate(-352.002 -218.103)" opacity="0.1"/>
        <path id="Path_73" data-name="Path 73" d="M783.919,424.876a11.513,11.513,0,0,0,0,3.647c-.088.97,0,6.361,0,6.361-2.918-.883-10.336.883-10.336.883l-.883-2.648a6.489,6.489,0,0,1-1.109-2.188,24.121,24.121,0,0,1-.686-2.6,54.488,54.488,0,0,1-.868-5.551c-.372-2.816,3.808-5.835,6.973-7.52s5.938,5.478,5.938,5.478S784.269,423.461,783.919,424.876Z" transform="translate(-352.002 -217.763)" fill="#4c4981"/>
        <path id="Path_74" data-name="Path 74" d="M768.953,368.047a5.838,5.838,0,0,0-.649-1.422c.044.124.087.241.124.365a5.617,5.617,0,0,1-1,4.982,3.967,3.967,0,0,0-1.627,3.713c-.124.788-.627,1.656-1.459,1.685a2.963,2.963,0,0,1-1.167-.35,1.189,1.189,0,0,0-1.16.036,1.3,1.3,0,0,0-.372.875,11.969,11.969,0,0,0-.066,2.918,4.721,4.721,0,0,1-.16,2.633,3.247,3.247,0,0,1-1.634,1.313,16.106,16.106,0,0,1-6.813.788,1.06,1.06,0,0,1-.4-.066.942.942,0,0,1-.343-.27,14.156,14.156,0,0,1-1.59-2.02c-1.087-1.648-1.845-3.5-3.056-5.062a14.837,14.837,0,0,1-1-1.284v.088a8.072,8.072,0,0,0,1.51,2.261c1.2,1.554,1.969,3.414,3.049,5.062a15.192,15.192,0,0,0,1.6,2.02,1.092,1.092,0,0,0,.336.27,1.073,1.073,0,0,0,.4.058,16.093,16.093,0,0,0,6.813-.788,3.115,3.115,0,0,0,1.634-1.313,4.632,4.632,0,0,0,.161-2.626,12.817,12.817,0,0,1,.066-2.918,1.349,1.349,0,0,1,.372-.868,1.167,1.167,0,0,1,1.167-.036,3.178,3.178,0,0,0,1.16.35c.8,0,1.3-.9,1.459-1.692a7.165,7.165,0,0,1,.43-2.341,7.334,7.334,0,0,1,1.2-1.371A5.632,5.632,0,0,0,768.953,368.047Z" transform="translate(-342.646 -198.447)" opacity="0.2"/>
        <path id="Path_75" data-name="Path 75" d="M887.046,367.3l-6.3,13.392a11.469,11.469,0,0,1-1.525,2.983c-.6.467-3.246,8.418-3.246,8.418l-6.762,10.416h0l-.459.729-2.648-.729-1.86-6.944.109-2.013V393.3s4.172-4.377,5.106-4.7c0,0,.729.087,2.115-3.3s2.655-4.121,2.655-4.121l.729-2.451,7.827-12.466s6.565-9.4,8.352-5.23S887.046,367.3,887.046,367.3Z" transform="translate(-389.627 -195.784)" fill="#b27c6e"/>
        <path id="Path_76" data-name="Path 76" d="M846.7,527.981a1.51,1.51,0,0,1-.212.642c-.729,1.065-4.836,22.736-4.836,22.736.328,1.459-.6,4.377-1.2,5.7a83.6,83.6,0,0,0-1.926,8.213s-.328,14.851-1.182,17.171.27,7.294.27,7.294c-.08,2.283,1.291,4.7,2.108,5.93l.161.233c.263.379.438.6.438.6a3.532,3.532,0,0,0,.926,1.145l.19.146a10.707,10.707,0,0,0,3.713,1.568h.131c.525.117.875.168.875.168l.328,1.794-3.508.729-6.7.46s-7.892.605-6.1-2.918a5.571,5.571,0,0,0,.321-.729h0q.1-.258.182-.525a18.154,18.154,0,0,0,.35-7.484l-1.525-11.992c-2.517-11.138,1.977-23.531,1.977-23.531s-.387-.992.474-3.508,0-8.024,0-8.024-.46-7.09-1.058-10.6a21.5,21.5,0,0,1-.241-4.471,22.279,22.279,0,0,1,.241-2.611l15.106-2.006A11.361,11.361,0,0,1,846.7,527.981Z" transform="translate(-375.455 -261.332)" fill="#b27c6e"/>
        <path id="Path_77" data-name="Path 77" d="M847.269,648.709l-3.508.729-6.7.459s-7.892.605-6.1-2.918a5.576,5.576,0,0,0,.321-.729h0a5.55,5.55,0,0,0,.182-.525,12.4,12.4,0,0,1,4,.8c2.247.868,3.939-1.393,3.939-1.393l1.094-2.086.16-.3c.263.379.438.6.438.6a3.649,3.649,0,0,0,1.116,1.291l-.19.387-1.058,2.232s1.357.139,3.21.438a1.459,1.459,0,0,0,1.751-.955h.131c.525.117.875.168.875.168Z" transform="translate(-376.234 -308.701)" opacity="0.1"/>
        <path id="Path_78" data-name="Path 78" d="M850.134,650.7c-.263,1.2-7.652,1.561-7.652,1.561s-4.114-.394-5.266.562-4.544.729-4.676.729-1.918-.066-2.619-3.275.912-3.647.985-3.7h0a12.1,12.1,0,0,1,4.18.81c2.247.868,3.939-1.393,3.939-1.393l1.255-2.385c.263.379.438.6.438.6a3.65,3.65,0,0,0,1.116,1.291l-1.247,2.619s1.357.139,3.209.43a1.539,1.539,0,0,0,1.882-1.459,1.709,1.709,0,0,0,0-.2s1.153.335,2.582.729a2.662,2.662,0,0,1,1.875,3.078Z" transform="translate(-375.852 -309.046)" fill="#fdbb2d"/>
        <path id="Path_79" data-name="Path 79" d="M875.869,542.613c-.175,1.058-.357,3.8-.357,3.8.62,2.3-.97,7.754-.97,7.754l-.8,3.115c.35,3.975-2.188,13.7-2.188,13.7s-1.7,9.016-2.582,12.9a10.671,10.671,0,0,0,.46,6.5l.066.16a1.184,1.184,0,0,0,.051.219,2.264,2.264,0,0,0,.1.314,4.661,4.661,0,0,0,.868,1.459,4.312,4.312,0,0,0,.474.489h0a9.637,9.637,0,0,0,2.815,1.736h0l.445.175a13.738,13.738,0,0,0,1.408.438h.161l-.357,2.086-4.683-1.2-6.273-2.035-3.042-1.707a1.941,1.941,0,0,1,.095-.489.159.159,0,0,0,0-.058,3.173,3.173,0,0,1,.095-.489c.481-2.735,1.678-10.387,1.08-16.047-.729-6.981,2.188-16.616,2.867-18.907a11.435,11.435,0,0,0,.533-4.07c-1.153-1.678-1.415-8.4-1.415-8.4s-2.123-4.333-3.873-8.928a22.805,22.805,0,0,1-1.262-4.646,15.743,15.743,0,0,1-.255-3.392s14.231-12.991,15.792-.416c.051.43.1.832.153,1.233C876.664,539.469,876.037,541.585,875.869,542.613Z" transform="translate(-387.663 -260.165)" fill="#b27c6e"/>
        <path id="Path_80" data-name="Path 80" d="M877.3,641.519l-.357,2.086-4.683-1.2-6.273-2.035L862.9,638.6a1.942,1.942,0,0,1,.095-.489.162.162,0,0,0,0-.058,3.146,3.146,0,0,1,.095-.489h.438a5.762,5.762,0,0,1,2.626.357c1.021.379,2.363.817,2.633.634a3.326,3.326,0,0,1,1.5-.262l.649-1.459.1-.219a4.581,4.581,0,0,0,.868,1.459,5.616,5.616,0,0,0,.5.518v.5l-.037.729a9.138,9.138,0,0,0,2.254,1.036,1.3,1.3,0,0,0,.627,0h0l.445.175a13.733,13.733,0,0,0,1.408.438h0Z" transform="translate(-389.089 -306.253)" opacity="0.1"/>
        <path id="Path_81" data-name="Path 81" d="M874.609,646.373c-1.306-.372-4.457-.977-4.967-.511s-4.88,0-4.88,0a2.655,2.655,0,0,1-2.254-1.32c-.912-1.415-.175-5.988-.175-5.988h.321l.54-.058h0a5.837,5.837,0,0,1,2.626.35c1.021.387,2.363.824,2.633.642a3.262,3.262,0,0,1,1.5-.27l.729-1.641a4.66,4.66,0,0,0,.868,1.459,4.794,4.794,0,0,0,.5.51l-.066,1.218a9.333,9.333,0,0,0,2.254,1.043.912.912,0,0,0,1.08-.343.874.874,0,0,0,.08-.182h0a8.064,8.064,0,0,0,1.853.613h0a3.385,3.385,0,0,1,3.647,2.6C881.6,646.526,875.915,646.745,874.609,646.373Z" transform="translate(-388.752 -306.636)" fill="#fdbb2d"/>
        <path id="Path_82" data-name="Path 82" d="M847.982,527.981l-.81.248a11.311,11.311,0,0,1-1.948.409c-4.187.591-11.08.233-13.268.095a22.269,22.269,0,0,1,.241-2.611l15.106-2.006A11.42,11.42,0,0,1,847.982,527.981Z" transform="translate(-376.735 -261.332)" opacity="0.1"/>
        <path id="Path_83" data-name="Path 83" d="M860.285,510.615s-5.544.861-10.059,1.845c-1.5.328-2.918.678-3.932,1.007a11.975,11.975,0,0,1-1.948.416c-5.026.729-13.954.051-13.954.051-2.451-7.951,2.976-17.966,2.976-17.966-.124-.8,1.131-3.239,1.131-3.239v-.08l.773-2.837h20.606l.255,1.218.525,2.48,3.239,15.369Z" transform="translate(-375.857 -247.635)" fill="#1c1c1c"/>
        <path id="Path_84" data-name="Path 84" d="M875.3,528.01l-.124.051-2.414,1.072c-2.612,1.2-10.424,1.459-13.13,1.459a15.758,15.758,0,0,1-.255-3.392s14.231-12.991,15.792-.416C875.2,527.208,875.254,527.638,875.3,528.01Z" transform="translate(-387.682 -260.208)" opacity="0.1"/>
        <path id="Path_85" data-name="Path 85" d="M867.128,514.2l-.5.226L864.21,515.5c-2.655,1.225-10.722,1.459-13.3,1.459h-.678a3.072,3.072,0,0,1-2.385-1.459c0-.16-.124-.948-.226-1.619-.095-.54-.168-1.007-.168-1.007a63.783,63.783,0,0,1-8.024-4.15c-2.021-1.379-1.51-11.175-1.123-16.1.139-1.7.263-2.816.263-2.816l20.862,1.218,2.918.168,1.67.372.445.095s1.2,8.753,1.794,9.483.2,3.18.131,4.581a8.333,8.333,0,0,1-.2,1.787,11.036,11.036,0,0,1,.664,3.822A7.633,7.633,0,0,0,867.128,514.2Z" transform="translate(-379.126 -247.635)" fill="#1c1c1c"/>
        <circle id="Ellipse_3" data-name="Ellipse 3" cx="8.549" cy="8.549" r="8.549" transform="translate(457.118 176.828)" fill="#b27c6e"/>
        <path id="Path_86" data-name="Path 86" d="M837.726,401.167s.591,8.1-1.065,9.957a75.429,75.429,0,0,1-5.967,5.369l1.327,5.5,7.491.861,8.753-9.344-1.991-2.414s-1.524-5.172-.27-7.754S837.726,401.167,837.726,401.167Z" transform="translate(-376.231 -212.23)" fill="#ffd2c6"/>
        <path id="Path_87" data-name="Path 87" d="M869.211,424.321h0l-.459.729-2.648-.729-1.86-6.944.109-2.013.547-.788s2.918.066,2.794,2.721C867.57,419.616,868.9,423.438,869.211,424.321Z" transform="translate(-389.627 -217.594)" opacity="0.1"/>
        <path id="Path_88" data-name="Path 88" d="M864.361,492.715s-2.108.467-4.522.78-5.2.481-6.346-.19c-1.918-1.138-12.313-.81-15.318-.693h-.511l.773-2.837h20.606l.255,1.218,2.918.168,1.67.372C864.193,492.248,864.361,492.715,864.361,492.715Z" transform="translate(-379.014 -247.62)" opacity="0.1"/>
        <path id="Path_89" data-name="Path 89" d="M846.857,415.438s2.918.066,2.786,2.721,1.59,7.221,1.59,7.221l-.664,1.525s-.926,3.713-.2,4.639,3.377.926,1.853,8.549c0,0-.328,5.7.467,7.557s.8,6.295,1.984,8.155a44.014,44.014,0,0,1,2.786,6.164s-8.615,1.918-10.868.6-16.106-.664-16.106-.664.066-2.32,0-2.59a2.144,2.144,0,0,1,.328-1.685c.467-.635,1.2-1.692.8-2.619s.992-2.3.263-3.735-1.612-1.721-1.459-2.509a3.377,3.377,0,0,0-.817-2.509c-.525-.664-4.107-7.666-4.107-7.666l-.6-3.268s-4.61-3.377-4.522-4.967,1.743-3.8,1.743-3.8l4.435-4.377s2.458,2.648,4.843,1.721,7.513-5.369,7.513-5.369,1.831-.992,1.962-1.721,1.262-.066,1.262-.066,1.656-.912,1.984-.591a5.835,5.835,0,0,0,1.794.591Z" transform="translate(-372.109 -217.938)" fill="#fdbb2d"/>
        <path id="Path_90" data-name="Path 90" d="M808.594,438.424l-1.408,1.109a18.637,18.637,0,0,0-1.773,7.221,95.239,95.239,0,0,1-1.787,11.189l-2.786,4.982s-4.573,9.607-5.172,12.16-3.312,6.864-3.312,6.864-9.213,8.279-2.786,9.774,6.63-6.565,6.63-6.565a9.478,9.478,0,0,0,1.743-2.786c.284-1.131,8.4-15.544,8.4-15.544s2.852-3.88,2.254-5.937c0,0,3.713-8.753,3.713-10.941a38.469,38.469,0,0,0-.6-5.456l.6-4.573Z" transform="translate(-358.901 -227.116)" fill="#b27c6e"/>
        <path id="Path_91" data-name="Path 91" d="M849.272,468.842s-6.492,3.4-7.754,3.581,5.5-.729,5.5-.729Z" transform="translate(-380.49 -239.262)" opacity="0.1"/>
        <path id="Path_92" data-name="Path 92" d="M855.1,473.249s-8.615,2.918-12.4,2.392C842.7,475.627,852.127,477.429,855.1,473.249Z" transform="translate(-381.026 -241.022)" opacity="0.1"/>
        <path id="Path_93" data-name="Path 93" d="M856.05,474.84s-7.761,4.88-12.327,4.085c0,0,10.672,2.123,12.327.992l-4.77-1.32S856.575,475.788,856.05,474.84Z" transform="translate(-381.433 -241.657)" opacity="0.1"/>
        <path id="Path_94" data-name="Path 94" d="M833.373,370.051a8.068,8.068,0,0,0-6.565,1.233c-1.328,1.043-2.188,2.641-3.705,3.421a19.864,19.864,0,0,1-2.422.853,7,7,0,0,0-4.267,7.528c.233,1.313.846,2.524,1.152,3.822a15.028,15.028,0,0,1-.525,7.039,74.2,74.2,0,0,1-7.367,18.272,1.94,1.94,0,0,0-.365,1.225,1.8,1.8,0,0,0,.452.78c3.064,3.538,8.024,4.756,12.728,4.916a9.832,9.832,0,0,0,5.048-.839A7.644,7.644,0,0,0,830,416.049a11.977,11.977,0,0,0,2.29-7.7c-.124-2.225-.868-4.471-.306-6.623a1.691,1.691,0,0,1,.394-.81c.5-.518,1.342-.379,2.057-.467,1.948-.226,3.2-2.276,3.436-4.223s-.255-3.9-.27-5.835a12.3,12.3,0,0,1,2.312-7.214,7.958,7.958,0,0,0,1.692-2.881c.277-1.4-.532-2.429-1.233-3.53-1.087-1.721-1.619-3.727-3.275-5.04a8.833,8.833,0,0,0-3.72-1.67Z" transform="translate(-367.691 -199.722)" opacity="0.1"/>
        <path id="Path_95" data-name="Path 95" d="M832.515,369.168a8.024,8.024,0,0,0-6.521,1.233c-1.328,1.05-2.188,2.648-3.713,3.428a21.151,21.151,0,0,1-2.422.846,7,7,0,0,0-4.267,7.513c.233,1.313.846,2.524,1.152,3.822a14.933,14.933,0,0,1-.525,7.039,74.064,74.064,0,0,1-7.36,18.236,1.868,1.868,0,0,0-.365,1.225,1.685,1.685,0,0,0,.445.78c3.064,3.545,8.024,4.756,12.728,4.916a9.883,9.883,0,0,0,5.047-.832,7.747,7.747,0,0,0,2.458-2.261,11.985,11.985,0,0,0,2.283-7.7c-.131-2.188-.875-4.471-.314-6.623a1.829,1.829,0,0,1,.394-.81c.51-.518,1.342-.379,2.064-.46,1.94-.226,3.2-2.283,3.428-4.223s-.255-3.9-.263-5.835a12.226,12.226,0,0,1,2.312-7.207,8.027,8.027,0,0,0,1.692-2.918c.27-1.4-.54-2.422-1.24-3.53-1.087-1.714-1.619-3.727-3.275-5.04A8.834,8.834,0,0,0,832.515,369.168Z" transform="translate(-367.366 -199.371)" fill="#0d0409"/>
        <path id="Path_96" data-name="Path 96" d="M843.723,507.273s1.7,7.958,4.53,10.117Z" transform="translate(-381.433 -254.607)" opacity="0.1"/>
        <g id="Group_24" data-name="Group 24" transform="translate(441.114 177.711)" opacity="0.1">
          <path id="Path_97" data-name="Path 97" d="M820.951,393.366c-.088-.306-.19-.62-.3-.926C820.769,392.753,820.842,393.031,820.951,393.366Z" transform="translate(-813.336 -386.466)"/>
          <path id="Path_98" data-name="Path 98" d="M840.268,382.495a2.917,2.917,0,0,1,0,.729,7.755,7.755,0,0,1-1.692,2.881,12.319,12.319,0,0,0-2.312,7.214c0,1.962.5,3.917.262,5.835s-1.459,4-3.428,4.216c-.729.088-1.554-.051-2.057.467a1.845,1.845,0,0,0-.4.81c-.562,2.152.19,4.377.314,6.623a11.985,11.985,0,0,1-2.32,7.7,7.565,7.565,0,0,1-2.458,2.254,9.8,9.8,0,0,1-5.04.839c-4.6-.153-9.482-1.342-12.575-4.749a1.211,1.211,0,0,0-.073.642,1.685,1.685,0,0,0,.445.78c3.064,3.545,8.024,4.756,12.728,4.916a9.885,9.885,0,0,0,5.048-.832,7.745,7.745,0,0,0,2.458-2.261,11.984,11.984,0,0,0,2.283-7.7c-.131-2.188-.875-4.471-.314-6.623a1.83,1.83,0,0,1,.394-.81c.51-.518,1.342-.379,2.064-.46,1.94-.226,3.195-2.283,3.428-4.223s-.255-3.9-.263-5.835a12.226,12.226,0,0,1,2.312-7.207,8.028,8.028,0,0,0,1.692-2.918A3.275,3.275,0,0,0,840.268,382.495Z" transform="translate(-808.472 -382.495)"/>
        </g>
        <ellipse id="Ellipse_4" data-name="Ellipse 4" cx="15.435" cy="1.561" rx="15.435" ry="1.561" transform="translate(78.788 363.225)" opacity="0.1"/>
        <path id="Path_99" data-name="Path 99" d="M231.537,650.958s-20.132,10.4-9.73,22.612a3.866,3.866,0,0,0,3.808,2.473s-.569-1.028,1.6-1.853a10.526,10.526,0,0,0,2.188-1.152,5.106,5.106,0,0,0,1.948-2.6h0s4.121-5.507.926-15.7c0,0,.416-2.918.051-3.348l-2.444,3.348s2.531,1.7,2.823,4.194c0,0-2.633-4.187-3.209-3.705-.117.095-1.211,1.831-1.211,1.831s4.377,2.976,4.7,6.835c0,0-2.465-5.405-5.106-6.178l-1.5,2.721s4.785,2.918,5.325,7.294c0,0-2.779-5.558-5.617-6.674l-1.116,2.874s4.61,2.918,5.033,6.565c0,0-3.859-6.1-5.245-5.9a13.929,13.929,0,0,0-.729,3.53s3.268,2.188,3.326,4.326c0,0-3.013-3.807-3.479-3.552,0,0-.19,3.822.729,5.835a11.6,11.6,0,0,1-1.335-5.835A6.339,6.339,0,0,0,221.347,672s-.868-2.108,1.984-4.034a14.758,14.758,0,0,1,.6-3.341,13.688,13.688,0,0,0-4.377,3.355s.481-2.757,4.668-4.128l1.065-2.918s-4.187,1.773-5.485,3.333c0,0,.934-2.735,5.835-4.048l1.459-2.684a23.717,23.717,0,0,0-5.536,2.684s1.408-2.356,5.981-3.436l1.182-1.685s-2.706.97-3.457,1.313-.9.175-.9.175A9.688,9.688,0,0,1,229.2,654.4S231.719,651.14,231.537,650.958Z" transform="translate(-131.916 -311.979)"/>
        <path id="Path_100" data-name="Path 100" d="M272.2,610.077c2.108,1.247,5.4,2.057,9.555-.62l-.044,5.916c.3,4.063,5.31,18.841,5.31,18.841l3.538,12.167a95.137,95.137,0,0,1,3.9,26.456,25.281,25.281,0,0,0,1.131,8.33c1.882,5.106-.729,11.671-1.882,14.1a58.918,58.918,0,0,1-5.835,1.641,3.976,3.976,0,0,0-.525.16v-.036s-5.31,2.108-7.674,1.816c-1.758-.219-2.859,1.977-1.459,3.589a10.7,10.7,0,0,1-3.538.467c-2.363-.292-3.538,3.771.883,4.931s29.512,0,29.512,0a3.56,3.56,0,0,0,1.889-3.932c1.926-.073,3.129-.131,3.129-.131s4.428-2.028,0-7.535l-.233.182-.948-2.786v-3.771s5.609-26.989,3.837-30.14S310.09,640.3,310.09,640.3l.591-17.681c1.6-3.3,2.422-8.476,2.837-12.524a26.687,26.687,0,0,0,1.131-5.945c.066-.948.124-1.947.16-2.983a20.023,20.023,0,0,0-1.072-6.674,65.99,65.99,0,0,1,6.682-8.4,8.6,8.6,0,0,0,2.655-7.535l-1.459-9.855-3.545-16.777c.445-4.668-.525-7.353-1.6-8.87.255-1.5.5-3.013.678-4.523a57.88,57.88,0,0,0-1.036-19.694,13.362,13.362,0,0,0-2.786-6.273c-1.794-1.933-4.7-3.115-5.361-5.646a18.363,18.363,0,0,0-.408-1.9c-.649-1.663-2.7-2.261-4.493-2.48-3.195-.387-7.812-.686-10.883.569a13.2,13.2,0,0,0-6.266,5.879,5.04,5.04,0,0,0-.729,3.647,4.785,4.785,0,0,0,.511,1.233,11.1,11.1,0,0,0-.729,3.888,11.313,11.313,0,0,0,7.221,10.489c.066.219.131.438.19.657a10.936,10.936,0,0,1,.284,1.576c-.051,1.029-.117,2.057-.168,3.078a3.47,3.47,0,0,1-.109.416,75.7,75.7,0,0,0-7.418,3.786c1.772,2.6-.292,13.618-.292,13.618-4.428,2.611-8.855,9.278-4.136,16.23a17.181,17.181,0,0,1,2.064,14.406l-.729,11.335h0l-.146,2.261h.058l-.058.861h.124v.926a13.6,13.6,0,0,0-6.908,5.106,18.3,18.3,0,0,1-3.093,3.793,2.276,2.276,0,0,0,.357,3.779Zm35.632-30.111a10.758,10.758,0,0,1,1.05-5.7h2.086c.073.489.153.956.255,1.379C311.826,578.23,309.434,579.448,307.836,579.966Z" transform="translate(-152.751 -252.585)" fill="url(#linear-gradient)"/>
        <path id="Path_101" data-name="Path 101" d="M317.637,817.148l1.138,3.406-3.676,3.691-12.211,2.837-8.8-.853.569-3.122h0a3.757,3.757,0,0,1,2.794-2.75c3.647-.853,10.518-2.786,11.97-5.485Z" transform="translate(-161.968 -377.428)" fill="#db8b8b"/>
        <path id="Path_102" data-name="Path 102" d="M317.637,817.148l1.138,3.406-3.676,3.691-12.211,2.837-8.8-.853.569-3.122h0a3.757,3.757,0,0,1,2.794-2.75c3.647-.853,10.518-2.786,11.97-5.485Z" transform="translate(-161.968 -377.428)" opacity="0.1"/>
        <path id="Path_103" data-name="Path 103" d="M292.53,828.593l1.707-2.276-1.707-2.626s-5.106,2.057-7.382,1.773-3.406,3.7.853,4.829,28.4,0,28.4,0,4.26-1.984,0-7.382l-3.676,2.838s-6.251,3.414-9.373,2.845Z" transform="translate(-157.591 -380.638)" fill="#2e3037"/>
        <path id="Path_104" data-name="Path 104" d="M286.021,832.854l8.8.846,12.211-2.838,3.691-3.691-.3-.9L310,825l-.408-1.233-8.235-2.276a5.106,5.106,0,0,1-1.67,1.678c-2.677,1.824-7.484,3.144-10.3,3.807l-.357.1a3.742,3.742,0,0,0-2.473,2.648Z" transform="translate(-158.748 -380.071)" fill="#db8b8b"/>
        <path id="Path_105" data-name="Path 105" d="M286.021,836.03l8.8.846,12.211-2.838,3.691-3.691-.3-.9-3.392,2.6s-6.244,3.414-9.373,2.845h-8.8l1.7-2.276-1.532-2.363a3.742,3.742,0,0,0-2.473,2.648Z" transform="translate(-158.748 -383.247)" opacity="0.1"/>
        <path id="Path_106" data-name="Path 106" d="M284.5,835.21l1.7-2.276-1.7-2.626s-5.106,2.057-7.389,1.772-3.406,3.7.853,4.829,28.4,0,28.4,0,4.26-1.984,0-7.382l-3.691,2.808s-6.244,3.414-9.373,2.845Z" transform="translate(-154.38 -383.28)" fill="#2e3037"/>
        <path id="Path_107" data-name="Path 107" d="M302.572,554.8s13.633,1.415,11.671-4.26a10.321,10.321,0,0,1-.423-5.018,13.939,13.939,0,0,1,2.414-5.777l-12.78,1.991a16.12,16.12,0,0,1,1.729,4.1C306.678,551.858,302.572,554.8,302.572,554.8Z" transform="translate(-165.357 -267.572)" fill="#db8b8b"/>
        <path id="Path_108" data-name="Path 108" d="M330.345,672.584s-.284,12.211-3.122,18.177l-.6,17.317s.853,15.9,2.553,19.031-3.691,29.534-3.691,29.534v4.537s-9.081,3.414-11.671-.562l2.6-33.794L315.3,679.951Z" transform="translate(-169.846 -320.614)" fill="#474463"/>
        <path id="Path_109" data-name="Path 109" d="M330.345,672.584s-.284,12.211-3.122,18.177l-.6,17.317s.853,15.9,2.553,19.031-3.691,29.534-3.691,29.534v4.537s-9.081,3.414-11.671-.562l2.6-33.794L315.3,679.951Z" transform="translate(-169.846 -320.614)" opacity="0.1"/>
        <path id="Path_110" data-name="Path 110" d="M342.3,607.341l1.7,4.544,1.422,9.657a8.534,8.534,0,0,1-2.553,7.382c-3.406,3.407-7.951,10.511-7.951,10.511l-5.4-16.171s5.4-.853,4.544-4.544-.569-10.511-.569-10.511Z" transform="translate(-176.115 -294.563)" fill="#fc6681"/>
        <path id="Path_111" data-name="Path 111" d="M342.3,607.341l1.7,4.544,1.422,9.657a8.534,8.534,0,0,1-2.553,7.382c-3.406,3.407-7.951,10.511-7.951,10.511l-5.4-16.171s5.4-.853,4.544-4.544-.569-10.511-.569-10.511Z" transform="translate(-176.115 -294.563)" opacity="0.05"/>
        <path id="Path_112" data-name="Path 112" d="M308.777,823.167c3.647,5.733,9.307,2.48,10.314,1.831l-.408-1.233-8.235-2.276a5.106,5.106,0,0,1-1.67,1.677Z" transform="translate(-167.834 -380.071)" opacity="0.1"/>
        <path id="Path_113" data-name="Path 113" d="M289.81,670.061c.284,3.975,5.106,18.462,5.106,18.462l3.406,11.919a94.511,94.511,0,0,1,3.742,25.924,25.53,25.53,0,0,0,1.116,8.162c2.276,6.244-2.268,14.763-2.268,14.763,3.975,7.1,10.788,2.276,10.788,2.276v-4.544s5.4-24.706,3.975-29.534-1.984-17.893-1.984-17.893V676.028a26.784,26.784,0,0,0,7.761-16.966c.073-.926.124-1.9.161-2.918.233-6.412-4.15-13.917-5.835-16.6-.408-.642-.664-1.006-.664-1.006l-25.107,9.949h-.058v3.122Z" transform="translate(-160.261 -307.019)" fill="#474463"/>
        <path id="Path_114" data-name="Path 114" d="M303.992,541.734a16.124,16.124,0,0,1,1.729,4.1,11.051,11.051,0,0,0,8.636-.314,13.94,13.94,0,0,1,2.414-5.777Z" transform="translate(-165.924 -267.572)" opacity="0.1"/>
        <circle id="Ellipse_5" data-name="Ellipse 5" cx="11.073" cy="11.073" r="11.073" transform="translate(132.671 256.277)" fill="#db8b8b"/>
        <path id="Path_115" data-name="Path 115" d="M289.81,651.6h.117c11.911,2.444,26.857-9.964,26.857-9.964a15.226,15.226,0,0,1-1.036-2.115c-.408-.642-.664-1.007-.664-1.007l-25.078,9.964-.066.992Z" transform="translate(-160.261 -307.009)" opacity="0.1"/>
        <path id="Path_116" data-name="Path 116" d="M290.905,559.917s15.9-9.658,21.015-5.682l7.1,9.089s4.544,1.415,3.691,10.5l3.406,16.47-10.212,2.56s-6.032,5.675-1.182,13.925c0,0-15.048,12.5-26.989,9.942l.846-13.348a17.27,17.27,0,0,0-1.984-14.195c-4.544-6.813-.284-13.348,3.975-15.909C290.584,573.229,292.576,562.47,290.905,559.917Z" transform="translate(-158.198 -272.975)" fill="#fc6681"/>
        <path id="Path_117" data-name="Path 117" d="M285.27,660.769s-5.959,1.131-8.8,5.675a17.541,17.541,0,0,1-2.969,3.713,2.254,2.254,0,0,0,.35,3.6c2.254,1.35,5.93,2.188,10.569-1.626C292.368,665.591,285.27,660.769,285.27,660.769Z" transform="translate(-153.453 -315.897)" fill="#db8b8b"/>
        <path id="Path_118" data-name="Path 118" d="M301.823,573.164s5.682-.569,7.1,14.2,3.691,18.177,3.691,18.177,1.422,7.666-1.984,12.21-9.942,14.195-9.942,14.195-7.1,1.991-8.52-5.106l8.8-16.47s1.422-5.675-1.984-9.65S293.019,570.326,301.823,573.164Z" transform="translate(-161.202 -280.832)" opacity="0.1"/>
        <path id="Path_119" data-name="Path 119" d="M300.876,571.777s5.682-.569,7.1,14.195,3.7,18.177,3.7,18.177,1.415,7.666-1.991,12.211-9.942,14.194-9.942,14.194-7.1,1.991-8.52-5.106l8.8-16.47s1.422-5.682-1.984-9.658S292.072,568.918,300.876,571.777Z" transform="translate(-160.823 -280.277)" fill="#fc6681"/>
        <path id="Path_120" data-name="Path 120" d="M299.464,589.613s-.569,8.8,1.984,13.633,2.56,11.073,0,14.486" transform="translate(-164.094 -287.484)" opacity="0.1"/>
        <path id="Path_121" data-name="Path 121" d="M297.132,568.444s2.276-2.269,8.8-2.553,9.373-2.276,9.373-2.276" transform="translate(-163.185 -277.104)" opacity="0.1"/>
        <path id="Path_122" data-name="Path 122" d="M312.2,507.67c1.721.212,3.7.8,4.318,2.429a18.056,18.056,0,0,1,.394,1.867c.642,2.48,3.436,3.647,5.157,5.536a13.175,13.175,0,0,1,2.684,6.142,57.765,57.765,0,0,1,1,19.293c-.554,4.712-1.685,9.351-2.006,14.078s.263,9.709,2.852,13.684c1.109,1.707,2.575,3.209,3.363,5.106-1.627,1.32-3.873,1.51-5.967,1.583q-3.647.117-7.294,0a7.806,7.806,0,0,1-3.727-.773,5.7,5.7,0,0,1-1.955-2.1,15.04,15.04,0,0,1-1.692-7.973c.058-2.757.5-5.485.547-8.235a7.406,7.406,0,0,0-.948-4.318,14,14,0,0,0-2.385-2.188c-3.034-2.692-4.077-7.017-4.18-11.073s.562-8.126.219-12.174c-.131-1.583-.729-3.487-2.283-3.793a9.887,9.887,0,0,1-1.459-.19c-1.255-.481-1.131-2.247-1.459-3.538-.4-1.459-1.634-2.568-1.984-4.034-.817-3.436,3.552-7.535,6.419-8.753S309.117,507.29,312.2,507.67Z" transform="translate(-162.449 -254.639)" opacity="0.1"/>
        <path id="Path_123" data-name="Path 123" d="M312.645,506.731c1.721.219,3.691.81,4.318,2.429a17.81,17.81,0,0,1,.394,1.875c.642,2.48,3.436,3.647,5.157,5.529A13.174,13.174,0,0,1,325.2,522.7a57.762,57.762,0,0,1,1,19.293c-.554,4.712-1.685,9.351-2.006,14.078s.263,9.709,2.852,13.684c1.109,1.707,2.575,3.21,3.363,5.106-1.627,1.32-3.873,1.51-5.967,1.583q-3.647.117-7.331,0a7.8,7.8,0,0,1-3.727-.773,5.732,5.732,0,0,1-1.955-2.093,15.012,15.012,0,0,1-1.692-7.98c.058-2.757.5-5.485.547-8.235a7.418,7.418,0,0,0-.948-4.318,14.3,14.3,0,0,0-2.385-2.188c-3.034-2.692-4.085-7.01-4.187-11.073s.569-8.126.226-12.174c-.131-1.583-.729-3.487-2.283-3.793a9.9,9.9,0,0,1-1.459-.19c-1.255-.481-1.131-2.247-1.459-3.538-.4-1.459-1.634-2.568-1.984-4.034-.817-3.428,3.552-7.535,6.419-8.753S309.567,506.38,312.645,506.731Z" transform="translate(-162.614 -254.269)" fill="#472727"/>
        <ellipse id="Ellipse_6" data-name="Ellipse 6" cx="17.506" cy="2.407" rx="17.506" ry="2.407" transform="translate(683.567 502.844)" opacity="0.1"/>
        <ellipse id="Ellipse_7" data-name="Ellipse 7" cx="17.506" cy="2.407" rx="17.506" ry="2.407" transform="translate(616.504 509.649)" opacity="0.1"/>
        <ellipse id="Ellipse_8" data-name="Ellipse 8" cx="17.506" cy="2.407" rx="17.506" ry="2.407" transform="translate(537.515 500.444)" opacity="0.1"/>
        <ellipse id="Ellipse_9" data-name="Ellipse 9" cx="12.444" cy="1.707" rx="12.444" ry="1.707" transform="translate(648.409 529.708)" opacity="0.1"/>
        <ellipse id="Ellipse_10" data-name="Ellipse 10" cx="12.444" cy="1.707" rx="12.444" ry="1.707" transform="translate(578.808 527.994)" opacity="0.1"/>
        <path id="Path_124" data-name="Path 124" d="M1079.412,849.814s24.552-80.485-3.844-112.725c-21.241-24.115-45.348-21.234-56.166-18.236a19.964,19.964,0,0,0-12.882,10.708c-3.771,8.14-3.093,21.365,23.56,36.792,44.619,25.829,47.412,61.272,47.412,61.272Z" transform="translate(-445.774 -338.305)"/>
        <path id="Path_125" data-name="Path 125" d="M1035.493,739.138s72.381,22.612,56.166,119.56" transform="translate(-458.005 -347.189)" fill="none" stroke="#4b19aa" stroke-miterlimit="10" stroke-width="1.214"/>
        <path id="Path_126" data-name="Path 126" d="M1100.938,752.653s-9.971,6.711-6.8,16.777" transform="translate(-481.174 -352.585)" fill="none" stroke="#4b19aa" stroke-miterlimit="10" stroke-width="1.214"/>
        <path id="Path_127" data-name="Path 127" d="M1047.575,760.03s6.1-6.2,13.509-2.779" transform="translate(-462.829 -354.01)" fill="none" stroke="#4b19aa" stroke-miterlimit="10" stroke-width="1.214"/>
        <path id="Path_128" data-name="Path 128" d="M1095.271,813.12s10.693-5.427,13.458,1.371" transform="translate(-481.874 -375.909)" fill="none" stroke="#4b19aa" stroke-miterlimit="10" stroke-width="1.214"/>
        <path id="Path_129" data-name="Path 129" d="M1133.841,833.3s-8.024-.642-8.177,3.2" transform="translate(-494.01 -384.771)" fill="none" stroke="#4b19aa" stroke-miterlimit="10" stroke-width="1.214"/>
        <path id="Path_130" data-name="Path 130" d="M1101.78,901.192s-28.754-58.5-36.654-57.216c-3.749.605-5.478,4.3-6.266,8.024a23.541,23.541,0,0,0,1.569,14.238C1064.5,875.582,1075.44,893.358,1101.78,901.192Z" transform="translate(-467.149 -389.041)"/>
        <path id="Path_131" data-name="Path 131" d="M1069.954,862.471s30.183,43.765,36.019,45.691" transform="translate(-471.765 -396.435)" fill="none" stroke="#4b19aa" stroke-miterlimit="10" stroke-width="1.214"/>
        <line id="Line_1" data-name="Line 1" x2="7.046" transform="translate(595.409 472.872)" fill="none" stroke="#4b19aa" stroke-miterlimit="10" stroke-width="1.214"/>
        <line id="Line_2" data-name="Line 2" x2="11.043" y2="0.474" transform="translate(603.849 488.882)" fill="none" stroke="#4b19aa" stroke-miterlimit="10" stroke-width="1.214"/>
        <line id="Line_3" data-name="Line 3" x1="1.196" y2="5.755" transform="translate(609.371 476.074)" fill="none" stroke="#4b19aa" stroke-miterlimit="10" stroke-width="1.214"/>
        <line id="Line_4" data-name="Line 4" x1="0.212" y2="5.23" transform="translate(622.099 493.58)" fill="none" stroke="#4b19aa" stroke-miterlimit="10" stroke-width="1.214"/>
        <path id="Path_132" data-name="Path 132" d="M1129.2,901.192s28.754-58.5,36.654-57.216c3.756.605,5.485,4.3,6.266,8.024a23.537,23.537,0,0,1-1.568,14.238C1166.442,875.582,1155.5,893.358,1129.2,901.192Z" transform="translate(-495.421 -389.041)"/>
        <path id="Path_133" data-name="Path 133" d="M1165.926,862.471s-30.184,43.765-36.012,45.691" transform="translate(-495.707 -396.435)" fill="none" stroke="#4b19aa" stroke-miterlimit="10" stroke-width="1.214"/>
        <line id="Line_5" data-name="Line 5" x1="7.046" transform="translate(665.945 472.872)" fill="none" stroke="#4b19aa" stroke-miterlimit="10" stroke-width="1.214"/>
        <line id="Line_6" data-name="Line 6" x1="11.043" y2="0.474" transform="translate(653.508 488.882)" fill="none" stroke="#4b19aa" stroke-miterlimit="10" stroke-width="1.214"/>
        <line id="Line_7" data-name="Line 7" x2="1.196" y2="5.755" transform="translate(657.833 476.074)" fill="none" stroke="#4b19aa" stroke-miterlimit="10" stroke-width="1.214"/>
        <line id="Line_8" data-name="Line 8" x2="0.212" y2="5.23" transform="translate(646.09 493.58)" fill="none" stroke="#4b19aa" stroke-miterlimit="10" stroke-width="1.214"/>
        <path id="Path_134" data-name="Path 134" d="M1045.87,956.724a4.967,4.967,0,0,1-1.634-2.473,2.188,2.188,0,0,1,1.145-2.517c1.05-.4,2.188.328,3.02,1.065s1.824,1.575,2.918,1.422a4.5,4.5,0,0,1-1.386-4.194,1.766,1.766,0,0,1,.386-.846c.584-.627,1.641-.357,2.342.131,2.188,1.561,2.838,4.581,2.852,7.294a13.787,13.787,0,0,0,0-3.005,3.085,3.085,0,0,1,1.13-2.655,3.391,3.391,0,0,1,1.722-.408,3.575,3.575,0,0,1,2.794.795,2.778,2.778,0,0,1-.109,3.428,10.69,10.69,0,0,1-2.918,2.312,6.49,6.49,0,0,0-2.064,1.969,2.556,2.556,0,0,0-.153.35h-6.251a17.278,17.278,0,0,1-3.793-2.67Z" transform="translate(-461.468 -430.911)"/>
        <path id="Path_135" data-name="Path 135" d="M1228.278,917.527a4.969,4.969,0,0,1-1.634-2.473,2.188,2.188,0,0,1,1.138-2.509c1.05-.408,2.188.321,3.027,1.058s1.824,1.576,2.918,1.459a4.5,4.5,0,0,1-1.386-4.194,1.762,1.762,0,0,1,.387-.846c.584-.627,1.641-.357,2.342.131,2.188,1.561,2.837,4.581,2.852,7.294a13.782,13.782,0,0,0,0-3.005,3.086,3.086,0,0,1,1.131-2.655,3.392,3.392,0,0,1,1.721-.408,3.545,3.545,0,0,1,2.786.8,2.767,2.767,0,0,1-.109,3.428,10.647,10.647,0,0,1-2.918,2.312,6.49,6.49,0,0,0-2.064,1.969,2.563,2.563,0,0,0-.153.35h-6.251A17.265,17.265,0,0,1,1228.278,917.527Z" transform="translate(-534.302 -415.275)"/>
        <path id="Path_136" data-name="Path 136" d="M1167.486,956.724a4.98,4.98,0,0,1-1.641-2.473,2.189,2.189,0,0,1,1.145-2.517c1.05-.4,2.188.328,3.027,1.065s1.823,1.575,2.918,1.422a4.472,4.472,0,0,1-1.386-4.194,1.7,1.7,0,0,1,.387-.846c.583-.627,1.634-.357,2.334.131,2.188,1.561,2.845,4.581,2.852,7.294a13.774,13.774,0,0,0,.044-3.005,3.078,3.078,0,0,1,1.124-2.655,3.413,3.413,0,0,1,1.721-.408,3.567,3.567,0,0,1,2.794.8,2.778,2.778,0,0,1-.109,3.428,10.76,10.76,0,0,1-2.918,2.312,6.348,6.348,0,0,0-2.064,1.969,1.873,1.873,0,0,0-.153.35H1171.3A17.225,17.225,0,0,1,1167.486,956.724Z" transform="translate(-510.025 -430.911)"/>
        <path id="Path_137" data-name="Path 137" d="M992.709,882.7s-2.349,3.064,1.079,7.7,6.258,8.542,5.106,11.43c0,0-5.172-8.6-9.38-8.753S988.077,887.851,992.709,882.7Z" transform="translate(-438.818 -404.512)"/>
        <path id="Path_138" data-name="Path 138" d="M992.713,882.7a3.645,3.645,0,0,0-.481.963c-4.107,4.822-6.3,9.329-2.349,9.439,3.684.109,8.1,6.689,9.147,8.345a2.3,2.3,0,0,1-.124.379s-5.172-8.6-9.38-8.753S988.081,887.851,992.713,882.7Z" transform="translate(-438.822 -404.512)" opacity="0.1"/>
        <path id="Path_139" data-name="Path 139" d="M988.95,888.751c0,1.08.124,1.955.27,1.955s.27-.875.27-1.955-.146-.569-.3-.569S988.95,887.672,988.95,888.751Z" transform="translate(-439.421 -406.652)" fill="#fff"/>
        <path id="Path_140" data-name="Path 140" d="M986.077,890.863c.948.511,1.772.824,1.846.693s-.635-.657-1.583-1.174-.576-.139-.649,0S985.128,890.345,986.077,890.863Z" transform="translate(-438.043 -407.473)" fill="#fff"/>
        <path id="Path_141" data-name="Path 141" d="M1012.553,882.7s2.341,3.064-1.087,7.7-6.251,8.542-5.106,11.43c0,0,5.172-8.6,9.388-8.753S1017.185,887.851,1012.553,882.7Z" transform="translate(-446.269 -404.512)"/>
        <path id="Path_142" data-name="Path 142" d="M1012.638,882.7a3.768,3.768,0,0,1,.474.963c4.114,4.822,6.3,9.329,2.349,9.439-3.647.109-8.089,6.689-9.147,8.345a1.22,1.22,0,0,0,.124.379s5.172-8.6,9.388-8.753S1017.269,887.851,1012.638,882.7Z" transform="translate(-446.354 -404.512)" opacity="0.1"/>
        <path id="Path_143" data-name="Path 143" d="M1023.732,888.751c0,1.08-.117,1.955-.27,1.955s-.27-.875-.27-1.955.153-.569.3-.569S1023.732,887.672,1023.732,888.751Z" transform="translate(-453.094 -406.652)" fill="#fff"/>
        <path id="Path_144" data-name="Path 144" d="M1025.362,890.863c-.948.511-1.78.824-1.845.693s.634-.657,1.583-1.174.576-.139.649,0S1026.311,890.345,1025.362,890.863Z" transform="translate(-453.222 -407.473)" fill="#fff"/>
        <path id="Path_145" data-name="Path 145" d="M1006.631,911.516s-6.565-.2-8.534-1.612-10.088-3.086-10.577-.824-9.862,11.226-2.451,11.284,17.2-1.153,19.177-2.356S1006.631,911.516,1006.631,911.516Z" transform="translate(-436.737 -414.603)" fill="#a8a8a8"/>
        <path id="Path_146" data-name="Path 146" d="M984.932,921.927c7.411.058,17.207-1.153,19.184-2.356,1.5-.912,2.1-4.194,2.3-5.711h.219s-.416,5.288-2.385,6.492-11.773,2.414-19.177,2.356c-2.137,0-2.881-.781-2.837-1.9C982.533,921.489,983.342,921.912,984.932,921.927Z" transform="translate(-436.739 -416.953)" opacity="0.2"/>
        <ellipse id="Ellipse_11" data-name="Ellipse 11" cx="25.326" cy="3.742" rx="25.326" ry="3.742" transform="translate(96.696 511.298)" fill="#4b4a4a" opacity="0.1"/>
        <ellipse id="Ellipse_12" data-name="Ellipse 12" cx="25.326" cy="3.742" rx="25.326" ry="3.742" transform="translate(158.018 544.888)" fill="#4b4a4a" opacity="0.1"/>
        <ellipse id="Ellipse_13" data-name="Ellipse 13" cx="16.769" cy="1.875" rx="16.769" ry="1.875" transform="translate(437.117 459.232)" fill="#4b4a4a" opacity="0.1"/>
        <ellipse id="Ellipse_14" data-name="Ellipse 14" cx="16.769" cy="1.875" rx="16.769" ry="1.875" transform="translate(358.726 513.165)" fill="#4b4a4a" opacity="0.1"/>
        <ellipse id="Ellipse_15" data-name="Ellipse 15" cx="16.769" cy="1.875" rx="16.769" ry="1.875" transform="translate(323.386 546.755)" fill="#242424" opacity="0.1"/>
      </g>
    </g>
  </g>
</svg>
